<svg xmlns="http://www.w3.org/2000/svg" width="487" height="320" viewBox="0 0 487 320"><defs><style>.a{fill:#bfa9a9;}.b{opacity:0.1;}.c{fill:#f5cfcf;}.d{fill:#3f3d56;}.e{fill:#f2f2f2;}.f{fill:#2f2e41;}.g{fill:#ffb8b8;}.h{fill:#34487f;}.i{fill:#ffc563;}.j{fill:none;}</style></defs><g transform="translate(-974 -405)"><g transform="translate(1054.225 414.029)"><path class="a" d="M516.326,380.018V465.57l14.31,23.322,1.089,1.774H588.19l1.141-110.647Z" transform="translate(-277.549 -204.292)"/><path class="b" d="M516.326,380.018V465.57l14.31,23.322.878-108.873Z" transform="translate(-277.549 -204.292)"/><path class="a" d="M136.707,375.084v85.552L122.4,483.958l-1.089,1.773H64.844L63.7,375.084Z" transform="translate(-34.243 -201.64)"/><path class="b" d="M203.911,375.084v85.552L189.6,483.958l-.878-108.874Z" transform="translate(-101.447 -201.64)"/><path class="c" d="M354.517,351.5v5.133H47.67v-7.415l28.517-14.829H329.422Z" transform="translate(-25.625 -179.763)"/><path class="b" d="M354.517,368.733v5.133H47.67v-7.415Z" transform="translate(-25.625 -197)"/><path class="d" d="M120.094,422.242H106.405l-5.7-3.992h25.666Z" transform="translate(-54.132 -224.844)"/><path class="d" d="M120.094,458.008H106.405l-5.7-3.992h25.666Z" transform="translate(-54.132 -244.07)"/><path class="d" d="M120.094,508.574H106.405l-5.7-3.993h25.666Z" transform="translate(-54.132 -271.251)"/><path class="d" d="M120.094,559.139H106.405l-5.7-3.992h25.666Z" transform="translate(-54.132 -298.432)"/><path class="d" d="M587.965,427.175h13.689l5.7-3.992H581.691Z" transform="translate(-312.686 -227.496)"/><path class="d" d="M587.965,462.941h13.689l5.7-3.992H581.691Z" transform="translate(-312.686 -246.721)"/><path class="d" d="M587.965,513.507h13.689l5.7-3.992H581.691Z" transform="translate(-312.686 -273.903)"/><path class="d" d="M587.965,564.072h13.689l5.7-3.992H581.691Z" transform="translate(-312.686 -301.084)"/><path class="d" d="M720.806,235.615H605.569a4.358,4.358,0,0,0-4.358,4.359V317.6a4.358,4.358,0,0,0,4.359,4.358h43.744l-1.639,10.464s-9.366,4.976-2.781,5.122,37.61,0,37.61,0,6,0-3.512-5.268l-1.542-10.317h43.355a4.358,4.358,0,0,0,4.358-4.359V239.973a4.358,4.358,0,0,0-4.359-4.358Z" transform="translate(-436.205 -179.925)"/><rect class="e" width="115.611" height="64.684" transform="translate(169.177 60.3)"/><circle class="e" cx="0.732" cy="0.732" r="0.732" transform="translate(226.251 57.519)"/><circle class="e" cx="2.781" cy="2.781" r="2.781" transform="translate(224.202 133.325)"/><path class="d" d="M389.935,351.828v1.464H311.2v-1.171l.108-.293,1.94-5.268h75.074Z" transform="translate(-167.285 -186.307)"/><path class="d" d="M765.683,464.156c-.143.613-.685,1.26-1.908,1.872-4.39,2.2-13.317-.585-13.317-.585s-6.878-1.171-6.878-4.244a5.477,5.477,0,0,1,.6-.359c1.846-.977,7.966-3.386,18.817.1a4.525,4.525,0,0,1,2.063,1.352,2.158,2.158,0,0,1,.621,1.862Z" transform="translate(-512.735 -300.067)"/><path class="b" d="M766.384,464.155c-5.374,2.059-10.164,2.213-15.079-1.2a10.8,10.8,0,0,0-6.422-2.115c1.846-.977,7.966-3.386,18.818.1a4.526,4.526,0,0,1,2.063,1.352A2.158,2.158,0,0,1,766.384,464.155Z" transform="translate(-513.435 -300.067)"/><ellipse class="e" cx="1.902" cy="0.585" rx="1.902" ry="0.585" transform="translate(244.308 161.716)"/><path class="b" d="M389.935,357.952v1.464H311.2v-1.171l.108-.293Z" transform="translate(-167.285 -192.431)"/><path class="f" d="M321.959,115.143a3.956,3.956,0,0,0-2.294.513,5.984,5.984,0,0,0-1.552,2.048,24.5,24.5,0,0,1-6.675,7.54c-1.983,1.453-4.505,3.265-4.166,5.944a8.033,8.033,0,0,0,.967,2.509c1.83,3.694,6.823,6.548,6.332,10.763,1.818-3.043-.614-4.548,1.2-7.592.866-1.449,2.37-3.085,3.677-2.175.438.3.725.851,1.181,1.119,1.087.638,2.244-.582,3.207-1.446,3.319-2.979,8.039-2.2,12.169-1.271,1.95.438,4.092,1.013,5.244,2.877,1.515,2.45-1.44,5.1-2.186,7.867a1.509,1.509,0,0,0,1.62,1.879c1.239-.122,2.707-.222,2.781-.766,1.559.055,3.47-.121,4.138-1.745a6.826,6.826,0,0,0,.32-1.985c.245-2.727,1.4-5.215,2.169-7.811s1.1-5.638-.194-7.939a9.186,9.186,0,0,0-1.7-2.06C340.861,116.3,331.206,115.133,321.959,115.143Z" transform="translate(-278.183 -115.159)"/><path class="g" d="M319.621,187.116s1.6,13.309-4.259,14.373,5.323,19.165,5.323,19.165l26.617,3.194-6.388-21.294s-4.259-1.6-1.6-12.244S319.621,187.116,319.621,187.116Z" transform="translate(-281.636 -152.491)"/><path class="g" d="M47.028,569.318l2.13,29.279H60.337l-3.194-29.279Z" transform="translate(-25.28 -306.05)"/><path class="g" d="M224.3,448.363l1.6,24.488,12.244-5.323L233.353,447.3Z" transform="translate(-120.573 -240.459)"/><path class="h" d="M274.167,416.278s.532,30.876,3.726,40.991,2.662,10.647,2.129,12.244-1.065.532-1.065,3.194-1.065,44.717,0,48.444-3.194,10.115,0,10.647,18.1,0,18.632-3.194-4.259-4.259-2.129-6.388,5.323-45.782,5.323-45.782l7.453-30.344,13.841-15.97h29.279l9.05,35.135s-3.726,10.115-1.065,10.115,18.632,3.194,18.632-8.518-5.323-46.314-6.388-47.379.532-4.791-1.065-6.388-20.229-12.776-27.15-14.906-16.629-4.664-16.629-4.664Z" transform="translate(-260.404 -264.803)"/><path class="f" d="M482.155,596.5s-7.985-2.662-11.712,5.323-2.129,10.115-2.129,10.115,12.244,4.259,14.373,2.129c.926-.927,3.868-1.248,6.9-1.316,4.612-.1,5.839-6.628,1.483-8.148q-.195-.068-.395-.118C486.413,603.416,482.155,596.5,482.155,596.5Z" transform="translate(-364.584 -373.686)"/><circle class="g" cx="15.97" cy="15.97" r="15.97" transform="translate(33.992 11.468)"/><path class="i" d="M292.08,230.166s26.085,5.323,32.473-3.194,9.05,23.956,9.05,23.956L336.8,285l-4.791,18.632S306.986,323.859,299,325.456s-20.229,2.662-20.229,2.662,3.726-59.091,3.726-60.155S292.08,230.166,292.08,230.166Z" transform="translate(-262.879 -174.513)"/><path class="f" d="M286.782,212.181s-5.8-3.325-7.4-.131-16.5,11.179-18.1,11.179,3.194,44.185,1.065,49.508-12.244,44.185-6.388,47.379,1.6-3.194,7.453,4.791,34.6,7.985,36.2,4.791-12.776-27.15-10.115-49.508,6.921-53.235,3.194-57.494A37.034,37.034,0,0,1,286.782,212.181Z" transform="translate(-249.647 -166.513)"/><path class="f" d="M366.258,218.754,367,216.2s22.149,7.343,23.214,12.134.532,38.329-3.194,40.991-9.05,6.921-5.323,13.309,7.985,13.309,11.179,13.841,9.05,4.259,7.453,7.985-20.762-3.194-20.762-3.194-12.776-9.582-12.244-24.488S366.258,218.754,366.258,218.754Z" transform="translate(-309.907 -169.49)"/><path class="g" d="M378.6,357.554,365.819,381.51s-18.632,19.164-7.985,21.294,16.5-17.567,16.5-17.567l13.841-19.7Z" transform="translate(-303.612 -245.473)"/><path class="f" d="M326.823,124.183a3.625,3.625,0,0,0-1.868.362,4.354,4.354,0,0,0-1.263,1.448,18.393,18.393,0,0,1-5.434,5.329c-1.615,1.027-3.667,2.308-3.391,4.2a5.254,5.254,0,0,0,.787,1.773,13.949,13.949,0,0,1,1.695,8.694l4.44-6.453c.7-1.024,1.929-2.181,2.993-1.537.356.215.59.6.961.791.885.451,1.827-.411,2.61-1.022,2.7-2.106,6.544-1.554,9.906-.9,1.587.31,3.331.716,4.269,2.033,1.559,2.189-.069,5.352.841,7.88a2.323,2.323,0,0,0,.961-1.534c1.269.039,2.824-.086,3.368-1.233a4.249,4.249,0,0,0,.261-1.4c.2-1.928,1.142-3.686,1.766-5.521s.9-3.985-.158-5.611a6.789,6.789,0,0,0-1.38-1.456C342.21,125,334.35,124.176,326.823,124.183Z" transform="translate(-282.269 -120.02)"/><path class="f" d="M401.6,237.836l4.96,1.317s11.543,29.56,8.881,49.789-4.259,15.97-4.259,15.97-4.259-9.582-13.841-7.453Z" transform="translate(-326.614 -181.119)"/><path class="f" d="M282.864,737.614c-1.284,1.745-1.026,4.238-2.164,6.082-.986,1.6-2.843,2.436-4.076,3.852a10.327,10.327,0,0,0-1.048,1.508c-1.144,1.916-2.073,4.371-.947,6.3.906,1.549,2.811,2.155,4.557,2.568a16.725,16.725,0,0,0,6.735.541,6.707,6.707,0,0,0,5.212-3.89,15.041,15.041,0,0,1,.557-1.573c1.21-2.383,5.007-2.409,6.246-4.777.867-1.657.07-3.661-.727-5.353l-2.433-5.169c-.807-1.715-4.081-.729-5.787-1.14C286.766,736.021,284.465,735.431,282.864,737.614Z" transform="translate(-260.378 -448.936)"/><path class="g" d="M254.6,376.245l22.359,34.6s13.841,17.568,18.1,9.582-14.906-21.294-14.906-21.294l-14.373-26.617Z" transform="translate(-249.885 -253.517)"/><path class="f" d="M260.3,238.9l-4.259-1.065s-8.518,2.662-10.647,13.841-.532,55.9,2.129,56.429,13.146-7.786,14.825-6.022S258.7,294.8,260.3,290.006,260.3,238.9,260.3,238.9Z" transform="translate(-244.406 -181.119)"/><g transform="translate(184.954 81.544)"><rect class="i" width="13.759" height="3.312" transform="translate(17.326)"/><rect class="i" width="4.841" height="3.312" transform="translate(73.891)"/><rect class="i" width="4.841" height="3.312" transform="translate(83.574)"/><rect class="i" width="32.869" height="3.312" transform="translate(35.927)"/><rect class="i" width="13.759" height="3.312" transform="translate(0 21.403)"/><rect class="i" width="4.841" height="3.312" transform="translate(56.565 21.403)"/><rect class="i" width="4.841" height="3.312" transform="translate(66.248 21.403)"/><rect class="i" width="32.869" height="3.312" transform="translate(18.6 21.403)"/><rect class="i" width="13.759" height="3.312" transform="translate(56.82 7.389)"/><rect class="i" width="13.759" height="3.312" transform="translate(75.42 7.389)"/><rect class="i" width="4.841" height="3.312" transform="translate(0 7.389)"/><rect class="i" width="4.841" height="3.312" transform="translate(9.682 7.389)"/><rect class="i" width="32.869" height="3.312" transform="translate(19.365 7.389)"/><rect class="i" width="13.759" height="3.312" transform="translate(28.283 14.523)"/><rect class="i" width="13.759" height="3.312" transform="translate(9.682 14.523)"/><rect class="i" width="4.841" height="3.312" transform="translate(0 14.523)"/><rect class="i" width="4.841" height="3.312" transform="translate(84.338 14.523)"/><rect class="i" width="32.869" height="3.312" transform="translate(46.628 14.523)"/></g></g><rect class="j" width="487" height="320" transform="translate(974 405)"/></g></svg>